<?xml version="1.0" encoding="utf-8"?>
<!DOCTYPE svg PUBLIC "-//W3C//DTD SVG 1.1//EN" "http://www.w3.org/Graphics/SVG/1.1/DTD/svg11.dtd">
<svg version="1.1" xmlns="http://www.w3.org/2000/svg" xmlns:xlink="http://www.w3.org/1999/xlink" x="0px" y="0px" viewBox="0 0 1000 1000" enable-background="new 0 0 1000 1000" xml:space="preserve">
<g><path d="M509.1,428.8h249.3c5.2,0,9.5-1.7,12.8-5c3.3-3.3,5-7.6,5-12.8V304.1c0-5.2-1.7-9.5-5-12.8c-3.3-3.3-7.6-5-12.8-5H509.1c-5.2,0-9.5,1.7-12.8,5c-3.3,3.3-5,7.6-5,12.8V411c0,5.2,1.7,9.5,5,12.8C499.7,427.1,503.9,428.8,509.1,428.8z"/><path d="M509.1,143.8h142.5c5.2,0,9.5-1.7,12.8-5c3.3-3.3,5-7.6,5-12.8V19.1c0-5.2-1.7-9.5-5-12.8c-3.3-3.3-7.6-5-12.8-5H509.1c-5.2,0-9.5,1.7-12.8,5c-3.3,3.3-5,7.6-5,12.8V126c0,5.2,1.7,9.5,5,12.8C499.7,142.1,503.9,143.8,509.1,143.8z"/><path d="M384.5,785H277.6V19.1c0-5.2-1.7-9.5-5-12.8c-3.3-3.3-7.6-5-12.8-5H152.9c-5.2,0-9.5,1.7-12.8,5c-3.3,3.3-5,7.6-5,12.8V785H28.2c-8.2,0-13.7,3.7-16.7,11.1c-3,7.1-1.7,13.5,3.9,19.5l178.1,178.1c4.1,3.3,8.3,5,12.8,5c4.8,0,9.1-1.7,12.8-5l177.5-177.5c3.7-4.4,5.6-8.9,5.6-13.3c0-5.2-1.7-9.5-5-12.8C393.9,786.6,389.7,785,384.5,785z"/><path d="M985,861.2c-3.3-3.3-7.6-5-12.8-5H509.1c-5.2,0-9.5,1.7-12.8,5c-3.3,3.3-5,7.6-5,12.8v106.9c0,5.2,1.7,9.5,5,12.8c3.3,3.3,7.6,5,12.8,5h463.1c5.2,0,9.5-1.7,12.8-5c3.3-3.3,5-7.6,5-12.8V874C990,868.8,988.3,864.6,985,861.2z"/><path d="M509.1,713.7h356.2c5.2,0,9.5-1.7,12.8-5c3.3-3.3,5-7.6,5-12.8V589c0-5.2-1.7-9.5-5-12.8c-3.3-3.3-7.6-5-12.8-5H509.1c-5.2,0-9.5,1.7-12.8,5c-3.3,3.3-5,7.6-5,12.8v106.9c0,5.2,1.7,9.5,5,12.8C499.7,712.1,503.9,713.7,509.1,713.7z"/></g>
</svg>